<svg width="48" height="48" viewBox="0 0 48 48" fill="none" xmlns="http://www.w3.org/2000/svg">
<path d="M38.65 15.3V11H34.3499V8.00002H38.65V3.65002H41.65V8.00002H46V11H41.65V15.3H38.65ZM4.69995 44C3.89995 44 3.19995 43.7 2.59995 43.1C1.99995 42.5 1.69995 41.8 1.69995 41V15.35C1.69995 14.5834 1.99995 13.8917 2.59995 13.275C3.19995 12.6584 3.89995 12.35 4.69995 12.35H12.05L15.7 8.00002H29.7V11H17.1L13.45 15.35H4.69995V41H38.7V20H41.7V41C41.7 41.8 41.3916 42.5 40.775 43.1C40.1583 43.7 39.4666 44 38.7 44H4.69995ZM21.7 36.7C24.1 36.7 26.1166 35.8834 27.75 34.25C29.3833 32.6167 30.2 30.5834 30.2 28.15C30.2 25.75 29.3833 23.7417 27.75 22.125C26.1166 20.5084 24.1 19.7 21.7 19.7C19.2666 19.7 17.2416 20.5084 15.625 22.125C14.0083 23.7417 13.2 25.75 13.2 28.15C13.2 30.5834 14.0083 32.6167 15.625 34.25C17.2416 35.8834 19.2666 36.7 21.7 36.7ZM21.7 33.7C20.1 33.7 18.7833 33.175 17.75 32.125C16.7166 31.075 16.2 29.75 16.2 28.15C16.2 26.5834 16.7166 25.2834 17.75 24.25C18.7833 23.2167 20.1 22.7 21.7 22.7C23.2666 22.7 24.575 23.2167 25.625 24.25C26.675 25.2834 27.2 26.5834 27.2 28.15C27.2 29.75 26.675 31.075 25.625 32.125C24.575 33.175 23.2666 33.7 21.7 33.7Z" fill="white"/>
</svg>
