<svg width="48" height="48" viewBox="0 0 48 48" fill="none" xmlns="http://www.w3.org/2000/svg">
<path d="M24 41.95L21.95 40.1C18.4167 36.8667 15.5 34.075 13.2 31.725C10.9 29.375 9.06667 27.275 7.7 25.425C6.33333 23.575 5.375 21.9 4.825 20.4C4.275 18.9 4 17.3833 4 15.85C4 12.85 5.00833 10.3417 7.025 8.325C9.04167 6.30834 11.5333 5.3 14.5 5.3C16.4 5.3 18.1583 5.75 19.775 6.65C21.3917 7.55 22.8 8.85 24 10.55C25.4 8.75 26.8833 7.425 28.45 6.575C30.0167 5.725 31.7 5.3 33.5 5.3C36.4667 5.3 38.9583 6.30834 40.975 8.325C42.9917 10.3417 44 12.85 44 15.85C44 17.3833 43.725 18.9 43.175 20.4C42.625 21.9 41.6667 23.575 40.3 25.425C38.9333 27.275 37.1 29.375 34.8 31.725C32.5 34.075 29.5833 36.8667 26.05 40.1L24 41.95ZM24 38C27.3667 34.9 30.1417 32.2417 32.325 30.025C34.5083 27.8083 36.2417 25.8667 37.525 24.2C38.8083 22.5333 39.7083 21.05 40.225 19.75C40.7417 18.45 41 17.15 41 15.85C41 13.65 40.3 11.8417 38.9 10.425C37.5 9.00834 35.7 8.3 33.5 8.3C31.8 8.3 30.2167 8.825 28.75 9.875C27.2833 10.925 26.1 12.4 25.2 14.3H22.75C21.8833 12.4333 20.7167 10.9667 19.25 9.9C17.7833 8.83334 16.2 8.3 14.5 8.3C12.3 8.3 10.5 9.00834 9.1 10.425C7.7 11.8417 7 13.65 7 15.85C7 17.15 7.25833 18.4583 7.775 19.775C8.29167 21.0917 9.19167 22.5917 10.475 24.275C11.7583 25.9583 13.5 27.9 15.7 30.1C17.9 32.3 20.6667 34.9333 24 38Z" fill="#FF0000"/>
<path d="M24.2066 20.9294C23.0422 22.2342 21.317 22.8327 19.583 22.4897C18.6721 22.3095 17.0386 21.6654 17.0866 20.5146C17.1389 19.2586 18.2654 18.2036 19.4764 18.0639C20.1259 17.989 20.5724 18.258 21.0671 18.6537C21.3991 18.9193 21.9558 19.5164 21.9271 19.9743C21.8972 20.4539 21.1767 20.7913 20.8045 20.9561C20.2101 21.2192 19.5828 21.2034 18.9475 21.2034C18.6799 21.2034 18.5578 21.2379 18.5973 20.9218C18.6622 20.4032 19.0825 19.8971 19.5563 19.7041C20.6981 19.2389 22.0094 19.4775 23.0878 19.9628C23.2475 20.0347 23.605 20.1388 23.5064 20.3852C23.313 20.8688 22.2644 21.1687 21.8282 21.2605C20.9883 21.4373 20.0931 21.4716 19.2367 21.4774C18.8219 21.4803 18.2128 21.5892 17.8363 21.3633C17.3772 21.0878 17.1598 20.6788 16.9686 20.1988C16.6738 19.4588 16.3624 18.8215 16.8088 18.0601C17.1023 17.5593 17.6521 17.1277 18.0646 16.7282C18.4484 16.3564 18.9648 16.1475 19.5031 16.1345C20.0403 16.1216 20.4863 16.477 21.0405 16.477C21.3034 16.477 21.4994 16.5202 21.6189 16.2487C21.6957 16.0742 21.9932 15.7162 22.1517 15.6017C22.3215 15.4791 22.5003 14.9385 22.2887 14.7798C22.0926 14.6327 22.3383 14.2975 22.0147 14.2166" stroke="#FF0000" stroke-width="3" stroke-linecap="round"/>
<path d="M22.5626 14.5591C21.8991 13.8955 21.4783 12.9965 20.8502 12.2986C20.6923 12.1231 20.3273 11.8163 20.2984 11.6136C20.2788 11.4764 20.0989 11.4404 20.0434 11.2863C19.9947 11.151 19.8225 11.1241 19.7542 10.9705C19.6612 10.7612 19.295 10.6799 19.1225 10.5557C18.8544 10.3627 18.6422 10.3218 18.3994 10.1599C18.3052 10.0971 18.21 10.1413 18.1102 10.0914C17.9609 10.0167 17.8802 9.86229 17.6992 9.83644C17.5379 9.8134 17.3618 9.8658 17.2045 9.81742C17.0076 9.75684 16.837 9.6454 16.6375 9.59289C16.0898 9.44876 15.5368 9.28465 14.9593 9.28465C14.6066 9.28465 14.254 9.28465 13.9013 9.28465C13.6717 9.28465 13.4421 9.28465 13.2125 9.28465C12.9418 9.28465 12.899 9.40212 12.6608 9.47492C11.978 9.68354 11.3486 9.9349 10.7542 10.3464C10.2449 10.699 9.65074 10.932 9.1521 11.2711C8.66578 11.6018 8.39516 12.3422 8.13984 12.8618C7.93294 13.2829 7.73102 13.6599 7.6984 14.1328C7.686 14.3126 7.457 14.3018 7.42821 14.4601C7.36214 14.8235 7.4244 15.2537 7.4244 15.6208C7.4244 16.4568 7.73868 17.2806 8.10939 18.022C8.5761 18.9555 8.95277 19.949 9.23582 20.9599C9.41045 21.5836 9.66474 22.3187 10.0274 22.8626C10.2495 23.1958 10.5324 23.5369 10.6781 23.9091C10.8296 24.2964 11.2151 24.6104 11.4354 24.9709C11.877 25.6935 12.4848 26.477 13.125 27.0258C13.295 27.1715 13.3951 27.3805 13.5056 27.5738C13.6473 27.8219 13.8941 27.9887 14.0612 28.2207C14.4039 28.6967 14.6878 29.1732 15.062 29.6288C15.6743 30.3742 16.3939 30.9949 17.0789 31.6799C17.3216 31.9226 17.5961 32.1286 17.8362 32.3687C18.0841 32.6167 18.3316 32.9883 18.6049 33.1907C18.9767 33.4661 19.3337 33.7766 19.6819 34.0812C19.9827 34.3444 20.232 34.668 20.5457 34.907C21.1741 35.3858 21.8094 35.8091 22.4941 36.1894C22.9695 36.4535 23.6549 37.151 24.2066 36.7679C24.675 36.4426 24.9948 36.2501 25.3064 35.7632C25.718 35.1201 26.2424 34.5416 26.5736 33.8491C26.7958 33.3844 27.3062 33.0053 27.6163 32.5894C27.969 32.1165 28.4476 31.997 28.8797 31.6533C29.3546 31.2756 29.763 30.8882 30.303 30.6182C30.5824 30.4785 30.8487 30.2806 31.0717 30.0626C31.29 29.8491 31.5611 29.3857 31.848 29.2939C32.897 28.9582 33.2176 27.9424 34.0704 27.3265C34.6124 26.9351 35.0674 26.3241 35.4252 25.77C35.8093 25.1753 36.1879 24.5907 36.4983 23.951C36.7227 23.4886 36.9597 23.0603 37.1186 22.5658C37.2864 22.0438 37.6589 21.5431 37.9406 21.0664C38.2486 20.5452 38.476 19.9887 38.7816 19.4681C39.0799 18.9599 39.1217 18.4094 39.2915 17.8622C39.5288 17.0977 39.4133 16.234 39.4133 15.4457C39.4133 14.8565 39.4734 14.2221 39.4019 13.6381C39.3677 13.3588 39.2065 13.0042 39.0746 12.7514C38.96 12.5317 38.9485 12.2707 38.8501 12.0398C38.6459 11.5607 38.344 11.1113 37.9977 10.7383C37.6829 10.3993 37.113 9.86937 36.6467 9.82883C36.3607 9.80396 36.1406 9.5716 35.8362 9.55864C35.5162 9.54503 35.2608 9.35315 34.9495 9.35315C34.3431 9.35315 33.7471 9.25964 33.1343 9.28465C32.8191 9.29751 32.6333 9.49383 32.3884 9.66139C32.1104 9.85159 31.743 9.94974 31.437 10.0914C31.1588 10.2202 30.8302 10.1779 30.5389 10.2589C30.4292 10.2893 30.2228 10.5438 30.1317 10.6242C29.742 10.9681 29.3157 11.1251 28.8645 11.3701C28.6661 11.4778 28.5007 11.7248 28.347 11.8876C28.2906 11.9473 27.9816 12.2615 27.9816 12.329C27.9816 12.461 28.7384 12.2675 28.7808 12.2605C29.5752 12.1295 30.4529 12.2301 31.2544 12.2301C32.3174 12.2301 33.3804 12.2301 34.4434 12.2301C35.4739 12.2301 36.5339 12.3168 37.5486 12.1235C38.2348 11.9928 38.9421 12.2271 39.4514 12.7096C40.0179 13.2463 40.448 14.1883 40.6463 14.932C40.8004 15.5098 41.0573 15.9667 41.0573 16.5988C41.0573 16.7215 41.0667 16.8493 41.0573 16.9717C41.0445 17.1385 40.8781 17.2513 40.848 17.4322C40.773 17.8822 39.1166 16.8348 38.9947 16.7815C37.2932 16.0359 35.7834 14.9138 34.177 13.9958C33.1589 13.4141 32.0295 13.3187 30.8814 13.4022C29.4094 13.5092 28.1909 14.6932 26.9542 15.3734C26.6966 15.5151 26.4542 15.5275 26.1931 15.6208C25.8747 15.7345 26.1613 15.0339 26.2083 14.9244C26.5727 14.0741 26.8686 13.2444 27.4793 12.5574C27.4835 12.5526 27.0936 12.8749 27.0074 12.9836C26.5157 13.6036 26.1107 13.9579 25.3673 14.2851C24.5754 14.6335 23.6394 15.1199 22.7681 15.2288C22.5374 15.2577 22.2635 15.271 22.0299 15.244C21.8652 15.225 21.6433 14.8492 21.5313 14.7303C21.3421 14.5292 21.0973 14.4801 20.8958 14.3003C20.8207 14.2332 20.7671 14.233 20.6751 14.2013C20.569 14.1649 20.5705 14.0379 20.4696 13.9844C20.0259 13.7495 19.4597 13.4946 18.9779 13.3794C18.711 13.3155 18.4126 13.1429 18.1445 13.0483C18.0392 13.0111 17.6257 12.849 17.5774 12.7629C17.4215 12.4843 16.7985 12.3622 16.744 12.0627C16.6977 11.8079 16.0522 11.4766 15.8117 11.4766C15.2407 11.4766 14.5754 11.3088 14.0536 11.5299C13.3594 11.824 12.7384 12.0092 12.128 12.4736C11.7002 12.7991 11.1654 12.8385 10.9787 13.3984C10.8363 13.8256 10.4749 14.2991 10.4422 14.7569C10.3946 15.423 10.4383 16.106 10.4383 16.7738C10.4383 17.1872 10.4382 17.6089 10.583 18.003C10.6973 18.3142 10.9178 18.5303 10.9178 18.8745C10.9178 19.1271 11.0678 19.3054 11.2071 19.5062C11.2987 19.6383 11.4107 19.7805 11.4506 19.94C11.48 20.0575 11.3699 20.0055 11.3364 20.0808C11.228 20.3248 11.5874 20.8934 11.6713 21.1045C11.8124 21.4593 11.918 21.8205 12.0519 22.1776C12.5841 23.5969 13.3448 24.899 14.1106 26.2038C14.3122 26.5473 14.6165 26.7931 14.7842 27.159C14.9328 27.4833 15.1455 27.7414 15.3322 28.0457C15.8436 28.879 16.5316 29.5038 17.2045 30.192C17.735 30.7345 18.2576 31.2908 18.7952 31.8284C19.2547 32.2878 19.6176 32.8939 20.2679 33.0918C20.9168 33.2893 21.465 33.6879 22.1745 33.6702C22.691 33.6573 23.2228 33.2485 23.651 32.9966C23.98 32.8031 24.4141 32.7407 24.7698 32.5742C25.0487 32.4437 25.2082 32.1337 25.5081 32.0415C25.7283 31.9737 25.9887 31.9286 26.1702 31.7713C26.4026 31.5699 26.6492 31.2814 26.8362 31.0368C27.0566 30.7486 26.616 31.1728 26.5736 31.2195C25.9224 31.9378 25.3285 32.8418 24.5187 33.3658C24.2577 33.5346 24.5946 34.1502 24.3055 34.2182C24.1054 34.2653 23.9309 34.2735 23.7271 34.2905C23.5403 34.3061 23.3952 34.4857 23.2324 34.4922C22.9614 34.503 23.0344 34.2965 23.0459 34.066C23.081 33.3651 23.5224 33.0465 24.062 32.6427C25.5121 31.5578 27.2642 30.9502 28.5867 29.6973C28.9136 29.3876 29.2405 29.1801 29.6561 29.0123C29.9927 28.8763 30.1801 28.4864 30.341 28.1903C30.7731 27.3953 31.4816 26.7934 31.947 26.0136C32.3223 25.3847 32.9758 24.8569 33.5224 24.3848C33.9893 23.9816 34.7614 23.3347 34.9609 22.7256C35.1292 22.2119 35.4185 21.8251 35.5622 21.2948C35.9919 19.7082 36.2687 18.0887 36.7114 16.5075C36.955 15.6375 37.0587 14.5961 37.0844 13.699C37.0873 13.5958 37.1365 13.3864 36.9854 13.3946C36.8019 13.4045 36.6421 13.5034 36.4831 13.5848C36.0525 13.8053 35.5846 13.9319 35.1322 14.0986C33.784 14.5953 32.5297 15.3603 31.1402 15.7388C29.7407 16.12 28.3021 16.1223 26.8666 15.9975C25.7909 15.904 24.5199 15.8022 23.5368 16.3705C23.3417 16.4833 23.1788 16.6505 23.0421 16.8271C22.6052 17.3919 22.1564 17.924 21.6417 18.4216C21.4375 18.619 21.2237 18.8122 20.9605 18.9278C20.8735 18.9659 20.486 19.0904 20.7208 18.8821C21.4219 18.2601 22.1398 17.747 22.7681 17.0402C23.4621 16.2595 24.2541 15.5003 25.3901 15.7806C26.3956 16.0287 27.3085 17.1987 27.4565 18.1895C27.6971 19.8004 25.7792 20.3188 24.5491 20.37C23.8462 20.3993 23.0661 20.4568 22.3609 20.3738C21.5715 20.281 22.3246 19.5487 22.5931 19.3387C24.0571 18.1935 26.1405 17.71 27.974 17.71" stroke="#FF0000" stroke-width="3" stroke-linecap="round"/>
<path d="M33.9335 17.025C33.4925 17.4108 33.0336 17.7847 32.6434 18.2237C32.268 18.6461 31.9491 19.1098 31.5512 19.5138C31.2726 19.7967 30.9512 20.1663 30.5808 20.332C30.3535 20.4337 30.0966 20.4537 29.8654 20.5489C29.448 20.7208 30.1631 19.7512 30.2079 19.6812C30.7763 18.794 31.3495 17.5755 32.221 16.9565C32.6914 16.6224 33.1711 16.2514 33.728 16.0812C33.7885 16.0627 33.8701 15.9759 33.8574 16.0203C33.768 16.333 33.5497 16.5986 33.4197 16.8956C32.9507 17.9676 32.3031 18.9507 31.7149 19.959C31.6489 20.0722 30.5033 21.728 30.676 21.8047C30.8829 21.8967 31.6279 21.1 31.7415 20.9675C32.4391 20.1536 33.1138 19.3628 34.0971 18.8821C34.6908 18.5918 34.7606 18.6725 34.607 19.3349C34.3538 20.4271 33.7949 21.5123 33.1267 22.406C33.0696 22.4824 32.5522 23.2324 32.6624 22.9692C32.9431 22.2986 33.3349 21.6635 33.629 20.9941C33.7815 20.6471 33.9336 20.2879 34.1161 19.9552C34.14 19.9117 34.4507 19.4219 34.4662 19.4529C34.7851 20.0906 34.1115 21.4741 33.8459 22.0178C33.325 23.0846 32.181 23.8539 31.2658 24.5599C30.7879 24.9286 30.3523 25.3335 29.9682 25.8004C29.5985 26.2497 29.3113 26.7056 28.8417 27.0639C28.4726 27.3455 28.1001 27.6239 27.7305 27.9011C27.5243 28.0558 27.2173 28.1126 26.9808 28.2245C26.647 28.3827 26.2883 28.5452 25.9838 28.7535C25.5394 29.0576 25.2793 29.5567 24.7851 29.8038C24.3883 30.0022 24.1533 30.1333 23.9174 30.5193C23.7737 30.7545 23.2954 30.7531 23.084 30.9645C22.8805 31.168 22.3465 31.1266 22.0451 31.1357C21.9224 31.1395 21.8187 31.2042 21.6722 31.2042C21.365 31.2042 21.1294 30.7747 20.953 30.5611C20.7273 30.2879 20.4211 30.1186 20.2413 29.819C19.9393 29.3157 19.5233 28.8754 19.2443 28.3615C18.6763 27.3153 17.5817 26.7061 16.9686 25.7586C16.6267 25.2303 16.1445 24.7635 15.9335 24.1793C15.6939 23.5156 15.1925 22.9031 14.8604 22.269C14.2463 21.0965 13.3153 20.0371 12.8663 18.7717C12.6499 18.162 12.5333 17.5555 12.3564 16.9184C12.2623 16.5799 12.1509 16.3164 12.1509 15.9633C12.1509 15.7059 12.3951 15.5525 12.5619 15.381C13.1366 14.7899 13.6451 14.2211 14.5103 14.1519C15.2118 14.0957 15.8144 14.4519 16.1238 15.107C16.3165 15.515 16.1183 15.988 16.0325 16.3933C15.8905 17.0634 16.0328 17.7773 15.6747 18.3912C15.5228 18.6516 15.3829 18.3597 15.3551 18.2275C15.2296 17.6317 15.1913 16.7931 15.5416 16.2753C15.7734 15.9326 16.1058 15.6146 16.5424 15.5903C16.7488 15.5789 17.2947 15.4912 17.4938 15.6017C17.7128 15.7234 17.6349 16.4908 17.6155 16.6825C17.547 17.3603 17.263 18.1864 16.6489 18.5548C16.4941 18.6477 16.1273 18.7609 15.9602 18.6309C15.8614 18.5541 15.9173 18.2351 15.9183 18.1362C15.9233 17.6427 15.9855 17.1572 16.1238 16.6825C16.2271 16.328 16.3828 16.0115 16.5919 15.7083C16.6564 15.6147 16.8012 15.479 16.8012 15.3544C16.8012 15.2628 16.4328 15.5113 16.4206 15.518C15.9815 15.7584 15.5429 16.0091 15.0811 16.203C13.8652 16.7135 12.4762 17.4606 11.1348 16.8537C10.5681 16.5974 10.2168 16.5555 9.80668 16.066C9.57124 15.785 9.12944 15.5697 8.82487 15.3582C8.74127 15.3001 8.34946 15.1695 8.73734 15.2859C9.42686 15.4927 10.0856 15.8387 10.7543 16.1041C11.8162 16.5255 12.8949 16.9791 13.9242 17.474C15.0197 18.0008 16.0173 18.7304 16.9153 19.5442C17.4112 19.9936 17.9465 20.4232 18.4185 20.8952C18.6468 21.1235 18.8175 21.4344 18.9665 21.721C19.193 22.1566 19.5198 22.5597 19.6857 23.0224C19.9606 23.7891 20.0587 24.6593 20.4392 25.378C20.6499 25.776 21.3867 26.9099 21.1432 26.5311C20.5689 25.6377 20.1522 24.6172 19.191 24.0499C18.9143 23.8866 18.5316 23.7019 18.3005 23.4867C18.1099 23.3092 17.6535 22.6094 17.3339 22.7256C16.9073 22.8808 18.6978 24.9419 18.9322 25.1763C19.9208 26.1649 20.7837 27.3929 21.9995 28.1066C22.2734 28.2674 22.6648 28.6308 22.9813 28.666C23.4113 28.7138 23.6593 28.5787 24.005 28.3273C24.6404 27.8652 25.4064 27.4486 26.1474 27.1933C26.8985 26.9345 27.3657 26.3898 28.0426 26.0288C28.4612 25.8055 28.9174 25.7472 29.2679 25.4161C29.6151 25.0882 29.8347 24.7551 30.1128 24.3696C30.3092 24.0972 30.6179 24.0876 30.8168 23.8444C30.961 23.6682 31.0318 23.336 31.0565 23.1138C31.1272 22.4777 31.262 21.8877 31.262 21.2415C31.262 20.6504 31.262 20.0592 31.262 19.4681C31.262 19.3171 31.3288 18.9659 31.2468 18.8326C31.1578 18.688 29.9974 17.6651 29.9073 17.9079C29.7407 18.3564 29.5485 18.8762 29.2984 19.2855C29.2017 19.4437 29.0539 19.6583 28.8912 19.7573C28.7977 19.8143 28.5494 19.8106 28.5259 19.94C28.4551 20.329 28.498 20.7054 28.3851 21.1007C28.1763 21.8315 28.0531 22.6874 27.6164 23.3269C27.108 24.0713 26.9608 25.4716 25.9496 25.7167C25.4231 25.8444 24.8764 25.7684 24.3474 25.8918C24.0031 25.9721 23.6548 26.0155 23.3009 25.9983C22.096 25.94 21.8756 24.6336 22.8138 23.9814C23.8431 23.2659 24.6393 22.7153 25.9267 22.5353C26.5142 22.4532 27.0573 22.3902 27.6202 22.2081C27.8224 22.1426 27.9289 22.1476 27.898 22.3793C27.802 23.0994 26.8938 24.0033 26.3035 24.3544C25.098 25.0711 23.8471 24.9709 22.4942 24.9709C21.9704 24.9709 22.1479 24.6236 22.3876 24.2554C23.0223 23.2805 23.7676 22.453 24.8574 21.995C25.0075 21.9319 26.3965 21.3287 26.5204 21.5764C26.8836 22.3027 26.2892 23.1557 25.9153 23.7265C25.6574 24.1201 25.2989 24.282 24.9221 24.5218C24.5906 24.7328 25.209 23.5001 25.2189 23.4791C25.5286 22.8242 25.9613 21.7098 26.7639 21.5611C27.2871 21.4642 27.6579 21.6236 27.6164 22.2157C27.5551 23.0885 26.8103 23.7522 26.1741 24.2706C25.667 24.6838 25.7746 23.8925 25.7821 23.5552C25.8071 22.439 26.4974 20.4499 27.9056 20.4499" stroke="#FF0000" stroke-width="3" stroke-linecap="round"/>
</svg>
